<?xml version="1.0" encoding="utf-8"?>
<!-- Generator: Adobe Illustrator 23.0.4, SVG Export Plug-In . SVG Version: 6.00 Build 0)  -->
<svg version="1.1" xmlns="http://www.w3.org/2000/svg" xmlns:xlink="http://www.w3.org/1999/xlink" x="0px" y="0px"
	 viewBox="0 0 297.9 206.2" style="enable-background:new 0 0 297.9 206.2;" xml:space="preserve">
<style type="text/css">
	.st0{fill:#F05547;}
</style>
<g id="Layer_1">
	<path class="st0" d="M64.3,36.6c-11.2,28.7-20.2,55.8-31.3,82.8c-1.6,3.2-4.2,6.9-6.9,9.6c-6.4,6.9-17.5,6.4-20.7-1.6
		c-4.2-9.6-3.7-19.6-4.2-29.7C0.5,76.5,0,55.2,0,34.5c0-4.8,0-10.1,8-10.6s5.3,5.3,4.8,8.5c-1.6,26-2.1,52.6,0.5,78.1
		c0.5,4.2,0,12.2,4.2,11.7c5.3-0.5,6.9-7.4,8.5-11.7c12.2-35,25.5-70.1,38.2-105.1C65.8,1.1,69,0,73.3,0c4.8,0.5,3.7,3.2,3.2,6.4
		c-3.2,38.8-8,77.5-18.1,116.3c-5.8,21.8-12.7,43-18.6,65.3c-1.1,3.7-1.6,7.4,0.5,10.1c1.1,1.6,2.1,3.2,0,5.3
		c-2.1,2.1-4.8,3.2-8,2.7c-3.2-0.5-4.2-2.1-4.2-4.8c-0.5-13.3,3.7-26,8-39.3C49.4,121.6,59.5,80.2,64.3,36.6z"/>
	<path class="st0" d="M88.2,135.4c-3.2,5.8-0.5,10.6,2.1,14.9c1.6,2.7,4.8,2.1,7.4-0.5c1.1-1.1,2.7-3.7,4.8-2.1
		c2.1,1.1,1.6,3.7,0,5.8c-5.8,8-16.5,9-21.2,1.1c-0.5-1.1-1.6-1.6-1.6-2.1c-1.6-3.2-4.8-10.1-5.3-27.1c-1.1-30.3,1.1-60.5,18.6-89.7
		c3.2-5.8,8.5-11.2,16.5-9.6c8.5,1.1,7.4,8,7.4,13.3c1.1,20.2-5.8,40.4-13.3,60.5C99.8,112.1,95.1,123.7,88.2,135.4z M108.3,39.3
		c0-1.6,0.5-4.2-2.1-4.2c-1.1,0-3.2,2.1-3.7,3.2C96.1,47.8,92.4,57.4,89.7,68C86,86,83.4,103.6,85,121.6
		C98.2,95.1,108.9,67.4,108.3,39.3z"/>
	<path class="st0" d="M154.5,122.7c-4.8-10.1-3.2-21.8-7.4-33.5c-3.7,11.7-7.4,22.8-11.7,33.5c-1.1,3.2-2.7,6.4-4.2,9
		c-2.7,4.2-7.4,6.9-12.2,5.8c-5.3-1.1-3.7-5.3-3.2-9c4.2-23.9,8.5-47.3,15.9-71.2c1.1-3.2,2.1-5.8,4.2-8.5
		c3.7-4.8,10.6-6.4,13.8-2.1c3.7,5.8,9.6,11.2,9,19.1c-0.5,16.5,0,33.5,3.2,49.4c1.1,3.7,2.1,9,8.5,9c5.8,0,8.5-4.8,11.2-9
		c1.6-2.7,3.2-4.8,4.2-7.4l2.7-6.4c0,0,4.8-8.5,4.8-2.7C193.8,128.5,164.6,146,154.5,122.7z M143.9,56.3
		c-8.5,19.6-11.7,39.3-14.9,59.5C132.8,96.1,146,77,143.9,56.3z"/>
	<path class="st0" d="M235.8,55.2c-18.1,18.6-25.5,39.8-28.1,62.1c0,2.1-1.1,3.7-1.6,5.8c-1.6,3.2-3.7,5.3-8,5.3
		c-3.7,0-4.2-2.7-4.8-5.3c-1.1-12.2-2.1-23.9-3.2-36.1c0,0-0.5-19.6,3.7-29.7c1.6-1.6,3.7-2.7,6.9-2.1c4.8,1.1,2.7,4.8,2.1,7.4
		c-1.1,12.2-2.1,23.9-2.7,35.6c4.2-17,13.3-32.9,27.1-47.3c2.1-2.1,4.2-3.7,7.4-2.1C237.9,50.4,237.9,53.1,235.8,55.2z"/>
	<path class="st0" d="M265,83.9c2.1,13.8,3.2,28.1-0.5,43c-1.6,6.4-4.8,13.3-13.3,14.3c-7.4,1.1-10.6-4.8-13.8-9
		c-1.6-2.7-2.7-6.4-4.2-9c-1.6-5.3-3.2-14.3-1.6-23.9c3.2-9.6,8-18.1,15.4-26s6.4-16.5,4.8-25.5c-1.1-5.3-1.6-11.2-1.6-16.5
		c-0.5-3.7-1.1-8.5,5.8-9.6c7.4-1.6,10.6,2.1,11.7,7.4c1.6,8,0,15.9-1.6,23.9c-5.8,20.2,31.9-5.3,31.9,3.7
		C297.9,65.8,261.8,61.1,265,83.9z M256,78.6c-4.8,8-8.5,14.3-11.7,20.2c-5.3,8.5-3.2,27.1,4.2,32.9c1.1,1.1,2.7,1.1,4.2,2.1
		c1.1-1.6,2.1-2.7,2.7-4.2C259.7,112.6,256.5,96.6,256,78.6z"/>
</g>
<g id="Layer_2">
</g>
</svg>
