<?xml version="1.0" encoding="UTF-8"?>
<svg fill="#ffffff" enable-background="new 0 0 23.3 23.3" version="1.1" viewBox="0 0 23.3 23.3" xml:space="preserve" xmlns="http://www.w3.org/2000/svg">
<path d="m23.2 5.9c-0.1-1.4-0.3-2.1-0.5-2.6-0.3-0.7-0.6-1.1-1.1-1.6s-1-0.8-1.6-1.1c-0.5-0.2-1.3-0.4-2.6-0.5-1.5-0.1-1.9-0.1-5.7-0.1s-4.3 0-5.8 0.1c-1.4 0-2.1 0.3-2.6 0.5-0.7 0.2-1.2 0.5-1.7 1s-0.8 1-1.1 1.6c-0.1 0.6-0.4 1.3-0.4 2.7-0.1 1.5-0.1 2-0.1 5.8s0 4.2 0.1 5.7c0.1 1.4 0.3 2.1 0.5 2.6 0.3 0.7 0.6 1.1 1.1 1.6s1 0.8 1.6 1.1c0.5 0.2 1.3 0.4 2.6 0.5 1.5 0.1 1.9 0.1 5.7 0.1s4.2 0 5.7-0.1c1.4-0.1 2.1-0.3 2.6-0.5 0.7-0.3 1.1-0.6 1.6-1.1s0.8-1 1.1-1.6c0.2-0.5 0.4-1.3 0.5-2.6 0.1-1.5 0.1-1.9 0.1-5.7 0.1-3.8 0.1-4.3 0-5.8zm-11.5 13.1c-4 0-7.3-3.3-7.3-7.3s3.3-7.3 7.3-7.3 7.3 3.2 7.3 7.3c0 4-3.3 7.3-7.3 7.3zm7.5-12.8c-0.9 0-1.7-0.8-1.7-1.7s0.8-1.7 1.7-1.7 1.7 0.8 1.7 1.7-0.8 1.7-1.7 1.7z"/>
<circle cx="11.8" cy="11.7" r="4.7"/>
</svg>
