<?xml version="1.0" encoding="UTF-8"?>
<svg fill="#f05447" viewBox="0 0 29 28" xmlns="http://www.w3.org/2000/svg">
<path d="m28.36 0.59c-0.828-0.8-2.071-0.8-2.9 0l-10.978 10.606-10.979-10.606c-0.829-0.8-2.072-0.8-2.9 0-0.829 0.801-0.829 2.001 0 2.802l10.978 10.605-10.978 10.605c-0.829 0.8-0.829 2.001 0 2.801 0.414 0.401 0.828 0.601 1.45 0.601 0.621 0 1.035-0.2 1.45-0.601l10.979-10.605 10.978 10.605c0.415 0.401 1.036 0.601 1.45 0.601 0.415 0 1.036-0.2 1.45-0.601 0.829-0.8 0.829-2.001 0-2.801l-10.978-10.605 10.978-10.605c0.829-0.801 0.829-2.001 0-2.802z"/>
</svg>
