<?xml version="1.0" encoding="UTF-8"?>
<svg fill="#ffffff" enable-background="new 0 0 26.9 26.9" version="1.1" viewBox="0 0 26.9 26.9" xml:space="preserve" xmlns="http://www.w3.org/2000/svg">
			<path d="m13.5 0c-7.5 0-13.5 6-13.5 13.5s6 13.5 13.5 13.5 13.5-6 13.5-13.5-6.1-13.5-13.5-13.5zm6.2 21.3c-0.2 0.3-0.5 0.5-0.8 0.5-0.2 0-0.3 0-0.4-0.1-2.2-1.2-4.6-1.8-7.1-1.8-1.5 0-2.9 0.2-4.3 0.7-0.5 0.2-1-0.1-1.2-0.6s0.1-1.5 0.6-1.7c1.6-0.5 3.2-0.7 4.9-0.7 2.8 0 5.5 0.7 8 2 0.4 0.2 0.5 1.3 0.3 1.7zm1.7-5c-0.2 0.4-0.6 1-1 1-0.2 0-0.3 0-0.5-0.1-2.7-1.4-5.6-2.1-8.6-2.1-1.7 0-3.3 0.2-4.9 0.7-0.6 0.2-1.2-0.2-1.3-0.8-0.2-0.6 0.2-1.6 0.8-1.7 1.8-0.5 3.6-0.7 5.5-0.7 3.3 0 6.6 0.8 9.6 2.3 0.4 0.2 0.7 0.8 0.4 1.4zm0.7-4.1c-0.2 0-0.4 0-0.5-0.1-3.2-1.6-6.6-2.4-10.2-2.4-1.9 0-3.7 0.2-5.5 0.7-0.7 0.2-1.3-0.2-1.5-0.9s0.2-1.5 0.8-1.7c2-0.5 4.1-0.7 6.1-0.7 4 0 7.8 0.9 11.3 2.7 0.6 0.3 0.9 1 0.6 1.7-0.2 0.3-0.7 0.7-1.1 0.7z"/>
</svg>
