<?xml version="1.0" encoding="utf-8"?>
<!-- Generator: Adobe Illustrator 25.4.1, SVG Export Plug-In . SVG Version: 6.00 Build 0)  -->
<svg version="1.1" id="Layer_1" xmlns="http://www.w3.org/2000/svg" xmlns:xlink="http://www.w3.org/1999/xlink" x="0px" y="0px"
	 viewBox="0 0 332.9 141" style="enable-background:new 0 0 332.9 141;" xml:space="preserve">
<style type="text/css">
	.st0{fill:#FFFFFF;}
</style>
<g>
	<g>
		<path class="st0" d="M55.7,76.9c-0.2-1.5-0.7-5.6-0.7-6.8h-0.1c0,1.3-0.6,5.2-0.8,6.8l-2.2,17.3h-5.6l-5.2-42h6.5l1.1,12.9
			c0.2,2.3,0.7,8.3,0.8,10h0.1c-0.1-1.7,0.7-7.8,1-10l1.8-12.9h5.3l1.8,12.9c0.3,2.1,0.9,8.3,1,10h0.1c-0.1-1.6,0.5-7.8,0.7-10
			l1.1-12.9h6.1l-5.2,42h-5.7L55.7,76.9z M61.2,91.6l4.6-36.9h-1.1l-4.1,34.4l-5-34.4h-1.3l-5.2,34.5l-3.8-34.5h-1.1l4.2,36.9h1.4
			L55,57.1l4.8,34.6H61.2z"/>
		<path class="st0" d="M72,94.2v-42h14.1v6.1h-7.4v11.5h4.9v5.7h-4.9v12.7h7.4v6.1H72z M83.5,55.7v-0.9h-8.7v36.9h8.7v-0.9h-7.6V73
			h5.5v-0.9h-5.5V55.7H83.5z"/>
		<path class="st0" d="M103.6,94.2H89.9v-42h6.8v36h7V94.2z M93.8,90.6V54.7h-1v36.9h8.2v-1H93.8z"/>
		<path class="st0" d="M115.6,94.8c-4.8,0-8.4-3.5-8.4-8.6v-26c0-5.1,3.6-8.6,8.4-8.6c5,0,8.1,3.5,8.1,8.5v7.2h-6.4v-7.3
			c0-1.1-0.3-2.1-1.6-2.1c-1.4,0-1.6,0.9-1.6,2.1v26.5c0,1.1,0.3,2.1,1.6,2.1c1.4,0,1.6-0.9,1.6-2.1v-7.3h6.4v7.2
			C123.6,91.4,120.5,94.8,115.6,94.8z M120.9,64.6v-4.7c0-3.4-2-5.7-5.3-5.7c-3.4,0-5.5,2.3-5.5,5.7v26.4c0,3.3,2.3,5.8,5.5,5.8
			c3.3,0,5.3-2.3,5.3-5.7v-4.7h-1v4.7c0,2.9-1.6,4.7-4.3,4.7c-2.9,0-4.4-2-4.4-4.8V60c0-2.8,1.8-4.8,4.4-4.8c2.9,0,4.3,1.8,4.3,4.7
			v4.7H120.9z"/>
		<path class="st0" d="M144.5,60v26.4c0,5-3.8,8.5-8.5,8.5s-8.5-3.4-8.5-8.5V60c0-5,3.8-8.5,8.5-8.5S144.5,54.9,144.5,60z
			 M130.5,59.8v26.8c0,3.1,2.5,5.6,5.5,5.6c3.1,0,5.5-2.5,5.5-5.6V59.8c0-3.1-2.5-5.6-5.5-5.6C133,54.2,130.5,56.7,130.5,59.8z
			 M140.5,59.8v26.8c0,2.6-2,4.5-4.5,4.5c-2.5,0-4.5-2-4.5-4.5V59.8c0-2.6,2-4.6,4.5-4.6C138.6,55.2,140.5,57.2,140.5,59.8z
			 M134.4,59.5v27.3c0,1.1,0.7,1.7,1.6,1.7s1.6-0.6,1.6-1.7V59.5c0-1.1-0.7-1.7-1.6-1.7S134.4,58.4,134.4,59.5z"/>
		<path class="st0" d="M173.2,94.2h-6.5v-8.7l0.4-10.7H167l-1.4,9.2l-2,10.2h-5.3l-2-10.2l-1.4-9.2H155l0.4,10.7v8.7h-6.2v-42h7.5
			l3.5,19.8l0.8,5.5h0.1L162,72l3.9-19.8h7.3V94.2z M168,54.5l-7,35.8l-6.7-35.8h-2.5v37.1h1V55.4h0.6l6.8,36.4h1.4l7.2-36.4h0.6
			v36.2h1V54.5H168z"/>
		<path class="st0" d="M178.1,94.2v-42h14.1v6.1h-7.4v11.5h4.9v5.7h-4.9v12.7h7.4v6.1H178.1z M189.7,55.7v-0.9H181v36.9h8.7v-0.9
			H182V73h5.5v-0.9H182V55.7H189.7z"/>
		<path class="st0" d="M215.9,94.2V76.9h-3.7v17.3h-6.8v-42h6.8v18.2h3.7V52.1h6.8v42H215.9z M218.8,54.7v18.4h-9.5V54.7h-1v36.9h1
			V74.1h9.5v17.5h1V54.7H218.8z"/>
		<path class="st0" d="M244.3,60v26.4c0,5-3.8,8.5-8.5,8.5c-4.7,0-8.5-3.4-8.5-8.5V60c0-5,3.8-8.5,8.5-8.5
			C240.5,51.5,244.3,54.9,244.3,60z M230.3,59.8v26.8c0,3.1,2.5,5.6,5.5,5.6c3.1,0,5.5-2.5,5.5-5.6V59.8c0-3.1-2.5-5.6-5.5-5.6
			C232.8,54.2,230.3,56.7,230.3,59.8z M240.4,59.8v26.8c0,2.6-2,4.5-4.5,4.5c-2.5,0-4.5-2-4.5-4.5V59.8c0-2.6,2-4.6,4.5-4.6
			C238.4,55.2,240.4,57.2,240.4,59.8z M234.2,59.5v27.3c0,1.1,0.7,1.7,1.6,1.7s1.6-0.6,1.6-1.7V59.5c0-1.1-0.7-1.7-1.6-1.7
			S234.2,58.4,234.2,59.5z"/>
		<path class="st0" d="M273.1,94.2h-6.5v-8.7l0.4-10.7h-0.1l-1.4,9.2l-2,10.2h-5.3l-2-10.2l-1.4-9.2h-0.1l0.4,10.7v8.7H249v-42h7.5
			L260,72l0.8,5.5h0.1l0.8-5.5l3.9-19.8h7.3V94.2z M267.9,54.5l-7,35.8l-6.7-35.8h-2.5v37.1h1V55.4h0.6l6.8,36.4h1.4l7.2-36.4h0.6
			v36.2h1V54.5H267.9z"/>
		<path class="st0" d="M277.9,94.2v-42h14.1v6.1h-7.4v11.5h4.9v5.7h-4.9v12.7h7.4v6.1H277.9z M289.5,55.7v-0.9h-8.7v36.9h8.7v-0.9
			h-7.6V73h5.5v-0.9h-5.5V55.7H289.5z"/>
	</g>
	<g>
		<path class="st0" d="M171.8,130.8c0,0-0.1,0-0.1,0l-4.5-2.5l-1.3,0l-4.4,2.5c-0.1,0-0.2,0-0.2,0c-0.1,0-0.1-0.1-0.1-0.2l0-2.3
			c0-0.1,0-0.1,0.1-0.2l3.6-3.2l-0.2-8.4l-9.8,3.6c-0.1,0-0.1,0-0.2,0c-0.1,0-0.1-0.1-0.1-0.2l0-3.5c0-0.1,0-0.2,0.1-0.2l9.8-5.7
			l-0.1-6.9c0,0,0,0,0,0c0-0.5,0.2-0.9,0.6-1.3c0.5-0.5,1.1-0.8,1.6-0.8c0,0,0,0,0,0c0.7,0,2.2,1,2.2,2.1l-0.1,6.9l10,6
			c0.1,0,0.1,0.1,0.1,0.2l0,3.5c0,0.1,0,0.1-0.1,0.2c-0.1,0-0.1,0.1-0.2,0l-10-3.8l-0.2,8.4l3.7,3.3c0,0,0.1,0.1,0.1,0.2l0,2.3
			c0,0.1,0,0.2-0.1,0.2C171.9,130.8,171.9,130.8,171.8,130.8z M165.9,127.7C165.9,127.7,165.9,127.7,165.9,127.7l1.4,0
			c0,0,0.1,0,0.1,0l4.2,2.4l0-1.8l-3.7-3.3c-0.1,0-0.1-0.1-0.1-0.2l0.2-8.9c0-0.1,0-0.1,0.1-0.2c0.1,0,0.1,0,0.2,0l10,3.8l0-3.1
			l-10-6c-0.1,0-0.1-0.1-0.1-0.2l0.2-7c0-0.9-1.2-1.7-1.7-1.7c-0.3,0-0.8,0.2-1.2,0.6c-0.2,0.2-0.5,0.6-0.5,1l0.1,7.1
			c0,0.1,0,0.2-0.1,0.2l-9.8,5.7l0,3.1l9.7-3.6c0.1,0,0.1,0,0.2,0c0.1,0,0.1,0.1,0.1,0.2l0.2,8.8c0,0.1,0,0.1-0.1,0.2l-3.6,3.2
			l0,1.8l4.1-2.3C165.8,127.7,165.8,127.7,165.9,127.7z M176.2,129C176.2,129,176.2,129,176.2,129c-0.1,0-0.2-0.1-0.2-0.2l0-6.7
			c0-0.1,0.1-0.2,0.2-0.2c0,0,0,0,0,0c0.1,0,0.2,0.1,0.2,0.2l0,6.7C176.4,128.9,176.3,129,176.2,129z M158.3,128
			C158.3,128,158.3,128,158.3,128c-0.1,0-0.2-0.1-0.2-0.2l0-6.2c0-0.1,0.1-0.2,0.2-0.2c0,0,0,0,0,0c0.1,0,0.2,0.1,0.2,0.2l0,6.2
			C158.6,127.9,158.5,128,158.3,128z M178.8,126.2C178.8,126.2,178.8,126.2,178.8,126.2c-0.1,0-0.2-0.1-0.2-0.2l0-3.5
			c0-0.1,0.1-0.2,0.2-0.2c0,0,0,0,0,0c0.1,0,0.2,0.1,0.2,0.2l0,3.5C179,126.1,178.9,126.2,178.8,126.2z M155.1,126
			C155.1,126,155.1,126,155.1,126c-0.1,0-0.2-0.1-0.2-0.2l0-3.5c0-0.1,0.1-0.2,0.2-0.2c0,0,0,0,0,0c0.1,0,0.2,0.1,0.2,0.2l0,3.5
			C155.3,125.9,155.2,126,155.1,126z"/>
	</g>
	<g>
		<path class="st0" d="M179.6,42.4c0,0-0.1,0-0.1,0l-3.2-2.4c-0.1,0-0.1-0.1-0.1-0.1l-3.3-2.5c-0.1,0-0.2-0.1-0.2-0.1l-2.8-2.1
			c0,0-0.1,0-0.1-0.1l-3-2.3l-3,2.3c0,0-0.1,0.1-0.1,0.1l-2.8,2.1c0,0.1-0.1,0.1-0.2,0.1l-3.3,2.5c0,0-0.1,0.1-0.1,0.1l-3.2,2.4
			c-0.1,0.1-0.2,0.1-0.3,0s-0.1-0.2,0-0.3l3.2-2.4V27.7c0,0,0,0,0,0v-2c0-0.1,0.1-0.2,0.1-0.2l0.5-0.2v-1.6c0,0,0,0,0,0v-0.2
			c0-3.7,2.4-6.9,5.8-8.2v-2.7c0-0.1,0.1-0.2,0.2-0.2h1.7l0.4-0.8c-0.4-0.4-0.2-0.9-0.1-1.3c0.1-0.2,0.1-0.5,0.1-0.8V9.1l-0.4-0.1
			c0,0,0,0,0,0c-0.2,0-0.2-0.2-0.2-0.3c0,0,0,0,0,0c-0.2,0-0.4-0.1-0.5-0.2c0-0.1-0.1-0.2,0-0.3c0-0.1,0.2-0.3,0.5-0.3
			c0-0.3,0.1-0.5,0.2-0.7c0.2-0.5,0.5-0.7,0.7-0.8c0-0.2,0-0.3,0-0.3c0-0.1,0-0.1,0-0.2c0-0.3,0.1-0.5,0.2-0.7
			c0.2-0.2,0.6-0.2,0.6-0.2c0.1,0,0.4,0,0.6,0.2c0.1,0.1,0.2,0.3,0.2,0.7c0,0.1,0,0.1,0,0.2c0,0.1,0,0.1,0,0.3
			c0.2,0.1,0.5,0.3,0.7,0.7c0.1,0.3,0.2,0.6,0.2,1.1c0.1,0.5,0,1.1,0,1.1c0,0.1-0.1,0.2-0.2,0.2l-0.4,0.1v0.2c0,0.3,0.1,0.5,0.1,0.8
			c0.1,0.4,0.3,0.9-0.1,1.3l0.4,0.8h1.5c0.1,0,0.2,0.1,0.2,0.2v2.7c3.4,1.3,5.8,4.5,5.8,8.2v0.2c0,0,0,0,0,0v1.6l0.5,0.2
			c0.1,0,0.1,0.1,0.1,0.2v2c0,0,0,0,0,0v11.8l3.2,2.4c0.1,0.1,0.1,0.2,0,0.3C179.7,42.3,179.6,42.4,179.6,42.4z M157.4,36.2v3l3-2.2
			v-0.8H157.4z M173.1,37l3,2.2v-3h-3V37z M160.9,36v0.7l2.4-1.8v-8.2h-2.4V36z M170.2,34.8l2.4,1.8v-10h-2.4V34.8z M173.1,35.7h3
			v-7.8l-3-1.2V35.7z M157.4,35.7h3v-9l-3,1.2V35.7z M163.8,29.7v4.7l1-0.8c-0.2-0.4-0.4-0.8-0.4-1.2c0-1.3,1.1-2.3,2.3-2.3
			c1.3,0,2.3,1,2.3,2.3c0,0.4-0.1,0.8-0.4,1.2l1,0.8v-4.7l-3-1.2L163.8,29.7z M166.8,30.7c-1,0-1.9,0.8-1.9,1.8
			c0,0.3,0.1,0.7,0.3,0.9l1.5-1.1c0.1-0.1,0.2-0.1,0.3,0l1.5,1.1c0.2-0.3,0.3-0.6,0.3-0.9C168.6,31.5,167.8,30.7,166.8,30.7z
			 M163.8,26.6v2.6l2.9-1.2c0.1,0,0.1,0,0.2,0l2.9,1.1v-2.6H163.8z M173.1,26.2l3,1.2v-1.5l-3-1.2V26.2z M157.4,25.9v1.5l3-1.2v-1.5
			L157.4,25.9z M160.9,26.1h11.8v-1.5h-11.8V26.1z M158.1,23.9v1.3l7.4-2.9l-3.2,0L158.1,23.9z M168,22.2l7.4,2.9v-1.3l-4.2-1.7
			L168,22.2z M161.8,24.2h10l-5-2L161.8,24.2z M163.4,15.9c-3,1.3-5.2,4.1-5.2,7.5l4-1.6C162.2,19.6,162.7,17.5,163.4,15.9z
			 M171.4,21.8l4,1.6c-0.1-3.4-2.2-6.2-5.2-7.5C170.8,17.5,171.3,19.6,171.4,21.8z M163.9,15.7c-0.7,1.6-1.2,3.8-1.4,6.1l4.2,0
			c0,0,0,0,0.1,0l4.2,0c-0.2-2.3-0.7-4.5-1.4-6.1C167.8,15.1,165.7,15.1,163.9,15.7z M163.9,14.4v0.8c1.8-0.6,3.9-0.6,5.7,0v-0.8
			H163.9z M163.9,14h5.7v-1h-5.7V14z M166.8,12.5h1.1l-0.4-0.7c0-0.1,0-0.2,0.1-0.3c0.3-0.2,0.3-0.4,0.1-0.9
			c-0.1-0.3-0.2-0.6-0.2-0.9V9.3c0-0.1,0.1-0.2,0.2-0.2l0.5-0.1c0-0.2,0.1-0.5,0-0.8c0,0,0,0,0,0c0,0,0,0,0,0c0-0.4-0.1-0.7-0.2-0.9
			c-0.1-0.1-0.1-0.2-0.2-0.3c0,0.2-0.1,0.3-0.2,0.4c-0.1,0.1-0.1,0.2-0.2,0.4l0,2.6c0,0.2,0,0.4,0.1,0.5c0,0.1,0,0.3-0.1,0.3
			c-0.1,0-0.3,0-0.3-0.1c-0.1-0.2-0.1-0.4-0.1-0.6V8.7h-0.1l0,1.6c0,0.3,0,0.5-0.1,0.7c0,0.1-0.2,0.2-0.3,0.1
			c-0.1,0-0.2-0.2-0.1-0.3c0.1-0.1,0.1-0.3,0.1-0.5V7.7c0-0.2-0.1-0.3-0.2-0.4C166.1,7.2,166,7,166,6.9c-0.1,0.1-0.2,0.2-0.2,0.4
			c-0.1,0.2-0.1,0.3-0.1,0.5c0,0,0,0,0,0c0,0,0,0,0.1,0l0-0.1c0-0.1,0.1-0.2,0.2-0.2c0,0,0,0,0,0c0.1,0,0.2,0.1,0.2,0.2l0,1.2
			c0,0,0,0,0,0V9c0,0,0,0,0,0v0.6c0,0.3-0.1,0.6-0.2,0.9c-0.1,0.5-0.2,0.7,0.1,0.9c0.1,0.1,0.1,0.2,0.1,0.3l-0.4,0.7H166.8z
			 M168.3,9.1L168.3,9.1L168.3,9.1z M165.6,8.4c0.1,0,0.2,0,0.2,0.1l0-0.3c0,0,0,0-0.1,0C165.6,8.3,165.6,8.3,165.6,8.4
			C165.5,8.3,165.5,8.4,165.6,8.4C165.6,8.4,165.6,8.4,165.6,8.4z M166.8,8.3h0.1V7.7c0-0.3,0.1-0.5,0.2-0.6c0-0.1,0.1-0.1,0.1-0.2
			c-0.2,0.1-0.5,0.1-0.8,0c0,0.1,0,0.1,0.1,0.2c0.1,0.1,0.2,0.3,0.2,0.6V8.3z M166.6,6.4c0.2,0.1,0.4,0,0.6,0
			c-0.1-0.2-0.2-0.4-0.3-0.6C166.8,5.9,166.7,6.2,166.6,6.4z M166.6,5.4C166.6,5.4,166.6,5.4,166.6,5.4c0.1,0,0.2,0.1,0.2,0.1
			c0-0.1,0.1-0.2,0.2-0.2c0.1,0,0.1,0,0.2,0.1c0,0,0,0,0-0.1c-0.1-0.1-0.3-0.1-0.3-0.1c0,0,0,0,0,0l0,0l0,0c0,0,0,0,0,0
			C166.7,5.3,166.6,5.3,166.6,5.4c-0.1,0-0.1,0-0.1,0C166.5,5.4,166.6,5.4,166.6,5.4z M167.7,8.9C167.7,8.9,167.7,8.9,167.7,8.9
			c-0.1,0-0.2-0.1-0.2-0.2l0-1c0-0.1,0.1-0.2,0.2-0.2c0,0,0,0,0,0c0.1,0,0.2,0.1,0.2,0.2l0,1C167.9,8.8,167.8,8.9,167.7,8.9z"/>
	</g>
	<g>
		<path class="st0" d="M146.7,30.3H29.4c-0.1,0-0.2-0.1-0.2-0.2s0.1-0.2,0.2-0.2h117.3c0.1,0,0.2,0.1,0.2,0.2S146.8,30.3,146.7,30.3
			z"/>
	</g>
	<g>
		<path class="st0" d="M146.7,35.1H29.4c-0.1,0-0.2-0.1-0.2-0.2s0.1-0.2,0.2-0.2h117.3c0.1,0,0.2,0.1,0.2,0.2S146.8,35.1,146.7,35.1
			z"/>
	</g>
	<g>
		<path class="st0" d="M224.4,39.9h-48.1c-0.1,0-0.2-0.1-0.2-0.2s0.1-0.2,0.2-0.2h48.1c0.1,0,0.2,0.1,0.2,0.2S224.6,39.9,224.4,39.9
			z"/>
	</g>
	<g>
		<path class="st0" d="M157,39.9h-49.8c-0.1,0-0.2-0.1-0.2-0.2s0.1-0.2,0.2-0.2H157c0.1,0,0.2,0.1,0.2,0.2S157.1,39.9,157,39.9z"/>
	</g>
	<g>
		<g>
			<path class="st0" d="M146.7,39.9c-0.1,0-0.2-0.1-0.2-0.2V0.2c0-0.1,0.1-0.2,0.2-0.2s0.2,0.1,0.2,0.2v39.5
				C146.9,39.8,146.8,39.9,146.7,39.9z"/>
		</g>
	</g>
	<g>
		<path class="st0" d="M303.4,30.3H186.2c-0.1,0-0.2-0.1-0.2-0.2s0.1-0.2,0.2-0.2h117.3c0.1,0,0.2,0.1,0.2,0.2
			S303.6,30.3,303.4,30.3z"/>
	</g>
	<g>
		<path class="st0" d="M303.4,35.1H186.2c-0.1,0-0.2-0.1-0.2-0.2s0.1-0.2,0.2-0.2h117.3c0.1,0,0.2,0.1,0.2,0.2
			S303.6,35.1,303.4,35.1z"/>
	</g>
	<g>
		<g>
			<path class="st0" d="M186.2,39.9c-0.1,0-0.2-0.1-0.2-0.2V0.2c0-0.1,0.1-0.2,0.2-0.2s0.2,0.1,0.2,0.2v39.5
				C186.4,39.8,186.3,39.9,186.2,39.9z"/>
		</g>
	</g>
	<g>
		<path class="st0" d="M146.7,115.2H29.4c-0.1,0-0.2-0.1-0.2-0.2s0.1-0.2,0.2-0.2h117.3c0.1,0,0.2,0.1,0.2,0.2
			S146.8,115.2,146.7,115.2z"/>
	</g>
	<g>
		<path class="st0" d="M146.7,110.4H29.4c-0.1,0-0.2-0.1-0.2-0.2s0.1-0.2,0.2-0.2h117.3c0.1,0,0.2,0.1,0.2,0.2
			S146.8,110.4,146.7,110.4z"/>
	</g>
	<g>
		<g>
			<path class="st0" d="M146.7,141c-0.1,0-0.2-0.1-0.2-0.2v-35.4c0-0.1,0.1-0.2,0.2-0.2s0.2,0.1,0.2,0.2v35.4
				C146.9,140.9,146.8,141,146.7,141z"/>
		</g>
	</g>
	<g>
		<path class="st0" d="M303.4,115.2H186.2c-0.1,0-0.2-0.1-0.2-0.2s0.1-0.2,0.2-0.2h117.3c0.1,0,0.2,0.1,0.2,0.2
			S303.6,115.2,303.4,115.2z"/>
	</g>
	<g>
		<path class="st0" d="M303.4,110.4H186.2c-0.1,0-0.2-0.1-0.2-0.2s0.1-0.2,0.2-0.2h117.3c0.1,0,0.2,0.1,0.2,0.2
			S303.6,110.4,303.4,110.4z"/>
	</g>
	<g>
		<g>
			<path class="st0" d="M186.2,141c-0.1,0-0.2-0.1-0.2-0.2v-35.4c0-0.1,0.1-0.2,0.2-0.2s0.2,0.1,0.2,0.2v35.4
				C186.4,140.9,186.3,141,186.2,141z"/>
		</g>
		<g>
			<path class="st0" d="M146.4,120.5H19.8c-0.1,0-0.2-0.1-0.2-0.2c0-7.3-6.1-13.2-13.6-13.2c-0.1,0-0.2-0.1-0.2-0.2V38
				c0-0.1,0.1-0.2,0.2-0.2c7.5,0,13.6-5.9,13.6-13.2c0-0.1,0.1-0.2,0.2-0.2h126.6c0.1,0,0.2,0.1,0.2,0.2s-0.1,0.2-0.2,0.2H20
				c-0.1,7.3-6.3,13.3-13.8,13.4v68.4c7.6,0.1,13.7,6.1,13.8,13.4h126.4c0.1,0,0.2,0.1,0.2,0.2S146.5,120.5,146.4,120.5z"/>
		</g>
		<g>
			<path class="st0" d="M313.1,120.5H186.2c-0.1,0-0.2-0.1-0.2-0.2s0.1-0.2,0.2-0.2h126.6c0.1-7.3,6.3-13.3,13.8-13.4V38.2
				c-7.6-0.1-13.7-6.1-13.8-13.4H186.2c-0.1,0-0.2-0.1-0.2-0.2s0.1-0.2,0.2-0.2h126.9c0.1,0,0.2,0.1,0.2,0.2
				c0,7.3,6.1,13.2,13.6,13.2c0.1,0,0.2,0.1,0.2,0.2v68.9c0,0.1-0.1,0.2-0.2,0.2c-7.5,0-13.6,5.9-13.6,13.2
				C313.3,120.4,313.2,120.5,313.1,120.5z"/>
		</g>
	</g>
	<g>
		<path class="st0" d="M15.8,100.1c-0.1,0-0.2-0.1-0.2-0.2V45.1c0-0.1,0.1-0.2,0.2-0.2s0.2,0.1,0.2,0.2v54.8
			C16.1,100,16,100.1,15.8,100.1z"/>
	</g>
	<g>
		<path class="st0" d="M10.9,100.1c-0.1,0-0.2-0.1-0.2-0.2V45.1c0-0.1,0.1-0.2,0.2-0.2s0.2,0.1,0.2,0.2v54.8
			C11.1,100,11,100.1,10.9,100.1z"/>
	</g>
	<g>
		<path class="st0" d="M321.9,100.1c-0.1,0-0.2-0.1-0.2-0.2V45.1c0-0.1,0.1-0.2,0.2-0.2s0.2,0.1,0.2,0.2v54.8
			C322.2,100,322.1,100.1,321.9,100.1z"/>
	</g>
	<g>
		<path class="st0" d="M317,100.1c-0.1,0-0.2-0.1-0.2-0.2V45.1c0-0.1,0.1-0.2,0.2-0.2s0.2,0.1,0.2,0.2v54.8
			C317.2,100,317.1,100.1,317,100.1z"/>
	</g>
	<g>
		<g>
			<path class="st0" d="M6.5,31.5c-0.9,0-1.6-0.7-1.6-1.5c0-0.6,0.3-1.1,0.9-1.4v-2.8H3c-0.3,0.5-0.8,0.8-1.4,0.8
				C0.7,26.7,0,26,0,25.1c0-0.9,0.7-1.5,1.6-1.5c0.6,0,1.1,0.3,1.4,0.8h2.8v-2.6c-0.5-0.3-0.9-0.8-0.9-1.4c0-0.9,0.7-1.5,1.6-1.5
				s1.6,0.7,1.6,1.5c0,0.6-0.3,1.1-0.9,1.4v2.6H10c0.3-0.5,0.8-0.8,1.4-0.8c0.9,0,1.6,0.7,1.6,1.5c0,0.9-0.7,1.5-1.6,1.5
				c-0.6,0-1.1-0.3-1.4-0.8H7.2v2.8c0.5,0.3,0.9,0.8,0.9,1.4C8.1,30.8,7.4,31.5,6.5,31.5z M2.8,25.4H6c0.1,0,0.2,0.1,0.2,0.2v3.2
				c0,0.1-0.1,0.2-0.1,0.2c-0.4,0.2-0.7,0.6-0.7,1c0,0.6,0.5,1.1,1.1,1.1s1.1-0.5,1.1-1.1c0-0.4-0.3-0.8-0.7-1
				c-0.1,0-0.1-0.1-0.1-0.2v-3.2c0-0.1,0.1-0.2,0.2-0.2h3.2c0.1,0,0.2,0.1,0.2,0.1c0.2,0.4,0.6,0.7,1,0.7c0.6,0,1.1-0.5,1.1-1.1
				c0-0.6-0.5-1.1-1.1-1.1c-0.5,0-0.9,0.3-1,0.7c0,0.1-0.1,0.1-0.2,0.1H7c-0.1,0-0.2-0.1-0.2-0.2v-3c0-0.1,0.1-0.2,0.1-0.2
				c0.4-0.2,0.7-0.6,0.7-1c0-0.6-0.5-1.1-1.1-1.1s-1.1,0.5-1.1,1.1c0,0.4,0.3,0.8,0.7,1c0.1,0,0.1,0.1,0.1,0.2v3
				c0,0.1-0.1,0.2-0.2,0.2H2.8c-0.1,0-0.2-0.1-0.2-0.1C2.4,24.3,2,24,1.6,24c-0.6,0-1.1,0.5-1.1,1.1c0,0.6,0.5,1.1,1.1,1.1
				c0.5,0,0.9-0.3,1-0.7C2.7,25.4,2.7,25.4,2.8,25.4z"/>
		</g>
		<g>
			<path class="st0" d="M6.3,126.5c-1.3,0-2.4-1-2.4-2.2c0-0.5,0.2-1.1,0.6-1.5l0.1-0.1l-0.1-0.1c-0.2-0.1-0.4-0.3-0.6-0.5L3.9,122
				l-0.1,0.1c-0.4,0.3-0.9,0.4-1.3,0.4c-1.3,0-2.4-1-2.4-2.2c0-1.2,1.1-2.2,2.4-2.2c0.5,0,0.9,0.1,1.3,0.4l0.1,0.1l0.1-0.1
				c0.2-0.2,0.4-0.4,0.6-0.5l0.1-0.1l-0.1-0.1c-0.4-0.4-0.6-0.9-0.6-1.5c0-1.2,1.1-2.2,2.4-2.2c1.3,0,2.4,1,2.4,2.2
				c0,0.5-0.2,1.1-0.6,1.5L8,117.8l0.1,0.1c0.2,0.1,0.4,0.3,0.6,0.5l0.1,0.1l0.1-0.1c0.4-0.3,0.9-0.4,1.3-0.4c1.3,0,2.4,1,2.4,2.2
				c0,1.2-1.1,2.2-2.4,2.2c-0.5,0-0.9-0.1-1.3-0.4L8.7,122l-0.1,0.1c-0.2,0.2-0.4,0.4-0.6,0.5L8,122.7l0.1,0.1
				c0.4,0.4,0.6,0.9,0.6,1.5C8.7,125.5,7.6,126.5,6.3,126.5z M3.9,121.4l0.3,0.4c0.1,0.2,0.3,0.3,0.5,0.4l0.6,0.4l-0.5,0.5
				c-0.3,0.3-0.5,0.7-0.5,1.2c0,1,0.9,1.8,1.9,1.8c1,0,1.9-0.8,1.9-1.8c0-0.4-0.2-0.8-0.5-1.2l-0.5-0.5l0.6-0.4
				c0.2-0.1,0.3-0.3,0.5-0.4l0.3-0.4l0.4,0.3c0.3,0.2,0.7,0.3,1.1,0.3c1,0,1.9-0.8,1.9-1.8c0-1-0.9-1.8-1.9-1.8
				c-0.4,0-0.8,0.1-1.1,0.3L8.7,119l-0.3-0.4c-0.1-0.2-0.3-0.3-0.5-0.4l-0.6-0.4l0.5-0.5c0.3-0.3,0.5-0.7,0.5-1.2
				c0-1-0.9-1.8-1.9-1.8c-1,0-1.9,0.8-1.9,1.8c0,0.4,0.2,0.8,0.5,1.2l0.5,0.5l-0.6,0.4c-0.2,0.1-0.3,0.3-0.5,0.4L3.9,119l-0.4-0.3
				c-0.3-0.2-0.7-0.3-1.1-0.3c-1,0-1.9,0.8-1.9,1.8c0,1,0.9,1.8,1.9,1.8c0.4,0,0.8-0.1,1.1-0.3L3.9,121.4z"/>
		</g>
		<g>
			<path class="st0" d="M326.2,126.6l-0.1-0.1c-1.6-0.9-2.1-2.8-2.1-4.3v-0.1l-0.1,0c0,0,0,0,0,0c-1.4,0-3.2-0.6-4.1-2.3l-0.1-0.1
				l0.1-0.1c0.9-1.7,2.7-2.3,4.1-2.3c0,0,0,0,0,0h0.1v-0.1c0-1.5,0.6-3.4,2.1-4.3l0.1-0.1l0.1,0.1c1.6,0.9,2.1,2.8,2.1,4.3v0.1h0.1
				c0,0,0,0,0,0c1.4,0,3.2,0.6,4.1,2.3l0.1,0.1l-0.1,0.1c-0.9,1.7-2.7,2.3-4.1,2.3c0,0,0,0,0,0l-0.1,0v0.1c0,1.5-0.6,3.4-2.1,4.3
				L326.2,126.6z M324.4,121.7v0.6c0,1.3,0.5,3,1.8,3.8c1.3-0.9,1.8-2.5,1.8-3.8v-0.6l0.6,0c0,0,0,0,0,0c1.3,0,2.9-0.5,3.7-1.9
				c-0.8-1.4-2.4-1.9-3.7-1.9c0,0,0,0,0,0H328v-0.6c0-1.3-0.5-3-1.8-3.8c-1.3,0.9-1.8,2.5-1.8,3.8v0.6h-0.6c0,0,0,0,0,0
				c-1.3,0-2.9,0.5-3.7,1.9c0.8,1.4,2.4,1.9,3.7,1.9c0,0,0,0,0,0L324.4,121.7z M324.1,122.2L324.1,122.2L324.1,122.2z"/>
		</g>
		<g>
			<path class="st0" d="M326,32.2c-0.1,0-0.2-0.1-0.2-0.1c0,0-0.5-1.2-2.2-2.1c0,0-0.1,0-0.1-0.1c-0.3-0.2-0.5-0.6-0.5-0.9
				c0-0.3,0.1-0.6,0.3-0.8c0,0,0,0,0,0c0.3-0.3,0.5-0.7,0.6-1c-0.3,0.1-0.6,0.4-0.9,0.6c0,0,0,0,0,0c-0.5,0.5-1.3,0.4-1.7-0.1
				c0,0-0.1,0-0.1-0.1c-0.9-1.6-2.1-2.1-2.1-2.1c-0.1,0-0.1-0.1-0.1-0.2s0.1-0.2,0.1-0.2c0,0,1.2-0.5,2.1-2.1c0,0,0-0.1,0.1-0.1
				c0.4-0.5,1.3-0.6,1.7-0.1c0,0,0,0,0,0c0.3,0.3,0.7,0.5,0.9,0.6c-0.1-0.4-0.4-1-0.7-1.3c0,0,0,0,0,0c-0.2-0.2-0.3-0.5-0.3-0.8
				c0-0.4,0.2-0.7,0.5-0.9c0,0,0-0.1,0.1-0.1c1.6-0.9,2.1-2.1,2.2-2.1c0-0.1,0.1-0.1,0.2-0.1l0,0c0.1,0,0.2,0.1,0.2,0.1
				c0,0,0.5,1.2,2.2,2.1c0,0,0.1,0,0.1,0.1c0.3,0.2,0.5,0.6,0.5,0.9c0,0.3-0.1,0.6-0.3,0.8c0,0,0,0,0,0c-0.3,0.3-0.5,0.9-0.7,1.3
				c0.3-0.1,0.6-0.4,0.9-0.6c0,0,0,0,0,0c0.5-0.5,1.3-0.4,1.7,0.1c0,0,0.1,0,0.1,0.1c0.9,1.6,2.1,2.1,2.1,2.1c0.1,0,0.1,0.1,0.1,0.2
				s-0.1,0.2-0.1,0.2c0,0-1.2,0.5-2.1,2.1c0,0,0,0.1-0.1,0.1c-0.4,0.5-1.3,0.6-1.7,0.1c0,0,0,0,0,0c-0.3-0.3-0.6-0.5-0.9-0.6
				c0.1,0.3,0.4,0.8,0.7,1.1c0,0,0,0,0,0c0.2,0.2,0.3,0.5,0.3,0.8c0,0.4-0.2,0.7-0.5,0.9c0,0,0,0.1-0.1,0.1
				c-1.6,0.9-2.1,2.1-2.2,2.1C326.2,32.1,326.1,32.2,326,32.2z M324,29.6c1.2,0.7,1.8,1.4,2.1,1.9c0.3-0.5,0.9-1.2,2.1-1.9
				c0,0,0,0,0,0c0.2-0.1,0.3-0.3,0.3-0.6c0-0.2-0.1-0.4-0.2-0.5c0,0,0,0,0,0c-0.6-0.6-0.9-1.5-0.9-1.6c0-0.1,0-0.2,0.1-0.3
				c0.1-0.1,0.2-0.2,0.3-0.1c0,0,0.8,0.3,1.4,0.9c0,0,0,0,0,0c0.3,0.3,0.8,0.3,1.1-0.1c0,0,0,0,0.1-0.1c0.7-1.1,1.5-1.8,1.9-2.1
				c-0.5-0.3-1.3-0.9-1.9-2.1c0,0,0,0,0,0c-0.3-0.4-0.8-0.4-1.1-0.1c0,0,0,0,0,0c-0.6,0.5-1.4,0.9-1.4,0.9c0,0-0.1,0-0.1,0
				c0,0-0.1,0-0.1,0c-0.1,0-0.2-0.2-0.2-0.3c0-0.1,0.3-1.3,0.9-1.9c0,0,0,0,0,0c0.1-0.1,0.2-0.3,0.2-0.5c0-0.2-0.1-0.4-0.3-0.6
				c0,0,0,0-0.1,0c-1.2-0.7-1.8-1.4-2.1-1.9c-0.3,0.5-0.9,1.2-2.1,1.9c0,0,0,0,0,0c-0.2,0.1-0.3,0.3-0.3,0.6c0,0.2,0.1,0.4,0.2,0.5
				c0,0,0,0,0,0c0.6,0.6,0.9,1.8,0.9,1.9c0,0.1,0,0.2-0.2,0.3c0,0,0,0-0.1,0c-0.1,0-0.1,0-0.2,0c0,0-0.8-0.3-1.4-0.9c0,0,0,0,0,0
				c-0.3-0.3-0.8-0.3-1.1,0.1c0,0,0,0-0.1,0.1c-0.7,1.1-1.5,1.8-1.9,2.1c0.5,0.3,1.3,0.9,1.9,2.1c0,0,0,0,0,0
				c0.3,0.4,0.8,0.4,1.1,0.1c0,0,0,0,0,0c0.6-0.5,1.4-0.9,1.4-0.9c0.1,0,0.1,0,0.2,0c0,0,0.1,0,0.1,0c0.1,0,0.2,0.2,0.2,0.3
				c0,0-0.3,1.1-0.9,1.7c0,0,0,0,0,0c-0.1,0.1-0.2,0.3-0.2,0.5C323.6,29.2,323.7,29.4,324,29.6C323.9,29.5,323.9,29.6,324,29.6z
				 M326,26.3c-0.6,0-1.2-0.5-1.2-1.2s0.5-1.2,1.2-1.2s1.2,0.5,1.2,1.2S326.7,26.3,326,26.3z M326,24.5c-0.4,0-0.7,0.3-0.7,0.7
				s0.3,0.7,0.7,0.7c0.4,0,0.7-0.3,0.7-0.7S326.4,24.5,326,24.5z"/>
		</g>
	</g>
</g>
</svg>
